<?xml version="1.0" encoding="UTF-8"?>
<svg version="1.1" xmlns="http://www.w3.org/2000/svg" width="32" height="32">
<path d="M0 0 C4.8688302 -0.19475321 8.43253587 0.37601275 13 2 C14.32 2 15.64 2 17 2 C16.94199219 2.80824219 16.88398438 3.61648437 16.82421875 4.44921875 C16.35792392 11.2833156 16.35792392 11.2833156 19.4375 17.125 C20.283125 17.74375 21.12875 18.3625 22 19 C23.35439668 21.70879335 23.06501451 24.00933268 23 27 C17.29482357 28.36428132 12.82126925 29.21840519 7 28 C6.113125 28.20625 5.22625 28.4125 4.3125 28.625 C3.549375 28.74875 2.78625 28.8725 2 29 C0.5625 27.6875 0.5625 27.6875 -1 26 C-2.99172182 25.30899447 -4.99161804 24.64097297 -7 24 C-7.66 23.34 -8.32 22.68 -9 22 C-8.625 19.875 -8.625 19.875 -8 18 C-6.02 18 -4.04 18 -2 18 C-2.33 16.68 -2.66 15.36 -3 14 C-4.32 13.67 -5.64 13.34 -7 13 C-6.67 10.03 -6.34 7.06 -6 4 C-5.195625 3.71125 -4.39125 3.4225 -3.5625 3.125 C-0.8673532 2.26737432 -0.8673532 2.26737432 0 0 Z M12 8 C13 11 13 11 13 11 Z " fill="#C67F49" transform="translate(9,2)"/>
<path d="M0 0 C4.8688302 -0.19475321 8.43253587 0.37601275 13 2 C14.32 2 15.64 2 17 2 C16.94199219 2.80824219 16.88398438 3.61648437 16.82421875 4.44921875 C16.35792392 11.2833156 16.35792392 11.2833156 19.4375 17.125 C20.283125 17.74375 21.12875 18.3625 22 19 C23.35439668 21.70879335 23.06501451 24.00933268 23 27 C17.29482357 28.36428132 12.82126925 29.21840519 7 28 C6.113125 28.20625 5.22625 28.4125 4.3125 28.625 C3.549375 28.74875 2.78625 28.8725 2 29 C0.5625 27.6875 0.5625 27.6875 -1 26 C-2.99172182 25.30899447 -4.99161804 24.64097297 -7 24 C-7.66 23.34 -8.32 22.68 -9 22 C-8.625 19.875 -8.625 19.875 -8 18 C-6.02 18 -4.04 18 -2 18 C-2.33 16.68 -2.66 15.36 -3 14 C-4.32 13.67 -5.64 13.34 -7 13 C-6.67 10.03 -6.34 7.06 -6 4 C-5.195625 3.71125 -4.39125 3.4225 -3.5625 3.125 C-0.8673532 2.26737432 -0.8673532 2.26737432 0 0 Z M1 2 C0.855625 3.32 0.71125 4.64 0.5625 6 C0.08117353 10.33881429 -0.44885023 14.66953754 -1 19 C-2.65 19.33 -4.3 19.66 -6 20 C-5.67 21.32 -5.34 22.64 -5 24 C-0.34947128 24.26932521 -0.34947128 24.26932521 4 23 C3.67 24.65 3.34 26.3 3 28 C3.66 28 4.32 28 5 28 C5 27.34 5 26.68 5 26 C6.05960938 26.01160156 7.11921875 26.02320312 8.2109375 26.03515625 C9.59895658 26.04453476 10.98697755 26.05363489 12.375 26.0625 C13.07367187 26.07087891 13.77234375 26.07925781 14.4921875 26.08789062 C18.37295376 26.1835442 18.37295376 26.1835442 22 25 C21.505 22.525 21.505 22.525 21 20 C18.03 20.33 15.06 20.66 12 21 C11.27972188 14.60753173 10.89627235 8.43111423 11 2 C7.7 2 4.4 2 1 2 Z M12 8 C13 11 13 11 13 11 Z " fill="#F3E2CC" transform="translate(9,2)"/>
<path d="M0 0 C5.625 -0.25 5.625 -0.25 9 2 C9.6875 4.625 9.6875 4.625 10 7 C14.455 6.505 14.455 6.505 19 6 C19.33 7.65 19.66 9.3 20 11 C17.23547967 12.38226016 14.9538637 12.09525387 11.875 12.0625 C10.77929688 12.05347656 9.68359375 12.04445313 8.5546875 12.03515625 C7.29011719 12.01775391 7.29011719 12.01775391 6 12 C5.67 11.01 5.34 10.02 5 9 C4.01 8.67 3.02 8.34 2 8 C1.26953125 6.15234375 1.26953125 6.15234375 0.8125 3.9375 C0.65394531 3.20402344 0.49539063 2.47054688 0.33203125 1.71484375 C0.22246094 1.14894531 0.11289063 0.58304688 0 0 Z " fill="#E8883D" transform="translate(11,16)"/>
<path d="M0 0 C0.99 0 1.98 0 3 0 C3 1.65 3 3.3 3 5 C5.97 5 8.94 5 12 5 C11.67 6.65 11.34 8.3 11 10 C11.66 10 12.32 10 13 10 C13 9.34 13 8.68 13 8 C18.66642551 6.77482692 24.23708518 6.90771133 30 7 C30.33 5.68 30.66 4.36 31 3 C31 4.98 31 6.96 31 9 C25.29482357 10.36428132 20.82126925 11.21840519 15 10 C14.113125 10.20625 13.22625 10.4125 12.3125 10.625 C11.549375 10.74875 10.78625 10.8725 10 11 C8.5625 9.6875 8.5625 9.6875 7 8 C5.00827818 7.30899447 3.00838196 6.64097297 1 6 C0.34 5.34 -0.32 4.68 -1 4 C-0.625 1.875 -0.625 1.875 0 0 Z " fill="#DBD4C7" transform="translate(1,20)"/>
<path d="M0 0 C1.37478516 0.01740234 1.37478516 0.01740234 2.77734375 0.03515625 C3.69644531 0.04417969 4.61554687 0.05320312 5.5625 0.0625 C6.27277344 0.07410156 6.98304687 0.08570312 7.71484375 0.09765625 C8.04484375 1.74765625 8.37484375 3.39765625 8.71484375 5.09765625 C6.30938737 6.30038444 4.76487422 6.19837097 2.08984375 6.16015625 C0.86394531 6.14662109 0.86394531 6.14662109 -0.38671875 6.1328125 C-1.32644531 6.11541016 -1.32644531 6.11541016 -2.28515625 6.09765625 C-2.66734392 4.44150968 -2.99910727 2.77308601 -3.28515625 1.09765625 C-2.28515625 0.09765625 -2.28515625 0.09765625 0 0 Z " fill="#C24C0E" transform="translate(22.28515625,21.90234375)"/>
<path d="M0 0 C0.556875 0.66 1.11375 1.32 1.6875 2 C3.81346449 4.27937739 3.81346449 4.27937739 6.5625 4 C7.366875 4 8.17125 4 9 4 C10.8125 6 10.8125 6 12 8 C11.67 8.66 11.34 9.32 11 10 C8.03 10 5.06 10 2 10 C0.39644899 6.49223216 -0.22036864 3.85645121 0 0 Z " fill="#D9BB92" transform="translate(19,13)"/>
<path d="M0 0 C1.32 0 2.64 0 4 0 C4 4.29 4 8.58 4 13 C0 14 0 14 -2 13 C-2 11.68 -2 10.36 -2 9 C-1.34 9 -0.68 9 0 9 C-0.185625 7.700625 -0.37125 6.40125 -0.5625 5.0625 C-0.87890625 2.84765625 -0.87890625 2.84765625 -1 1 C-0.67 0.67 -0.34 0.34 0 0 Z " fill="#F4F3EB" transform="translate(22,4)"/>
<path d="M0 0 C4.29 0.66 8.58 1.32 13 2 C13.33 3.32 13.66 4.64 14 6 C13.01 6 12.02 6 11 6 C11 6.66 11 7.32 11 8 C10.34 8 9.68 8 9 8 C9.33 6.35 9.66 4.7 10 3 C8.906875 3.185625 7.81375 3.37125 6.6875 3.5625 C3 4 3 4 0 3 C0 2.01 0 1.02 0 0 Z " fill="#72593F" transform="translate(3,22)"/>
<path d="M0 0 C2.31 0.66 4.62 1.32 7 2 C7.125 4.375 7.125 4.375 7 7 C6.34 7.66 5.68 8.32 5 9 C2.875 8.625 2.875 8.625 1 8 C1.66 6.68 2.32 5.36 3 4 C2.01 3.67 1.02 3.34 0 3 C0 2.01 0 1.02 0 0 Z " fill="#DBA067" transform="translate(10,4)"/>
<path d="M0 0 C2.97 0 5.94 0 9 0 C9 2.97 9 5.94 9 9 C8.01 9 7.02 9 6 9 C6 6.69 6 4.38 6 2 C4.02 2 2.04 2 0 2 C0 1.34 0 0.68 0 0 Z " fill="#DA8542" transform="translate(11,4)"/>
<path d="M0 0 C1.4606285 2.64738916 2 3.89448334 2 7 C-0.64 6.67 -3.28 6.34 -6 6 C-5.67 4.68 -5.34 3.36 -5 2 C-4.360625 1.855625 -3.72125 1.71125 -3.0625 1.5625 C-1.02454854 1.18992819 -1.02454854 1.18992819 0 0 Z " fill="#CF7227" transform="translate(17,10)"/>
<path d="M0 0 C0.99 0 1.98 0 3 0 C3 1.65 3 3.3 3 5 C4.32 5 5.64 5 7 5 C7 5.66 7 6.32 7 7 C4.15673536 7.23053497 2.53854651 7.35903101 0.125 5.75 C-1 4 -1 4 -0.6875 1.8125 C-0.460625 1.214375 -0.23375 0.61625 0 0 Z " fill="#CFD6D3" transform="translate(1,20)"/>
<path d="M0 0 C0 1.32 0 2.64 0 4 C-1.32 4.33 -2.64 4.66 -4 5 C-4.66 3.35 -5.32 1.7 -6 0 C-3 -1 -3 -1 0 0 Z " fill="#CB6A2C" transform="translate(31,23)"/>
<path d="M0 0 C1.98 0 3.96 0 6 0 C6.33 0.99 6.66 1.98 7 3 C5.35 3.66 3.7 4.32 2 5 C1.34 3.35 0.68 1.7 0 0 Z " fill="#E57E31" transform="translate(11,16)"/>
<path d="M0 0 C0.99 0.33 1.98 0.66 3 1 C3 1.99 3 2.98 3 4 C2.01 4 1.02 4 0 4 C0 4.66 0 5.32 0 6 C-0.66 6 -1.32 6 -2 6 C-1.125 1.125 -1.125 1.125 0 0 Z " fill="#5D4834" transform="translate(14,24)"/>
<path d="M0 0 C1.32 0.66 2.64 1.32 4 2 C4 2.66 4 3.32 4 4 C1.69 3.67 -0.62 3.34 -3 3 C-2.01 2.01 -1.02 1.02 0 0 Z " fill="#F2DEBF" transform="translate(26,17)"/>
</svg>
